M48
METRIC,LZ,000.000
;FILE_FORMAT=3:3
;TYPE=PLATED
;Layer: PTH_Through
;EasyEDA v6.5.22, 2023-05-12 10:20:37
;d26d94e297664bcd9bbc3ef6a8ca1e7a,10
;Gerber Generator version 0.2
;Holesize 1 = 0.889 mm
T01C0.889
;Holesize 2 = 0.900 mm
T02C0.900
;Holesize 3 = 0.915 mm
T03C0.915
%
G05
G90
T01
X065786Y043307
X049657Y040386
X049657Y037846
X045339Y040513
X045339Y037973
X006477Y024130
X006477Y021590
X006477Y019050
X006477Y016510
X006477Y013970
X006477Y011430
X006477Y008890
X006477Y006350
X024511Y024003
X024511Y021463
X024511Y018923
X024511Y016383
X024511Y013843
X024511Y011303
X024511Y008763
X024511Y006223
X090297Y033020
X087757Y033020
X085217Y033020
X082677Y033020
X080137Y033020
X077597Y033020
X075057Y033020
X072517Y033020
X069977Y033020
X067437Y033020
X064897Y033020
X062357Y033020
X059817Y033020
X057277Y033020
X054737Y033020
X052197Y033020
X049657Y033020
X047117Y033020
X044577Y033020
X042037Y033020
X042037Y018161
X044577Y018161
X047117Y018161
X049657Y018161
X052197Y018161
X054737Y018161
X057277Y018161
X059817Y018161
X062357Y018161
X064897Y018161
X067437Y018161
X069977Y018161
X072517Y018161
X075057Y018161
X077597Y018161
X080137Y018161
X082677Y018161
X085217Y018161
X087757Y018161
X090297Y018161
X077724Y038608
X075184Y038608
X072644Y038608
X070104Y038608
X061722Y037973
X059182Y037973
X056642Y037973
X054102Y037973
X053467Y006223
X050927Y006223
X040640Y037846
X040640Y040386
X029083Y006096
X029464Y011303
X021717Y043053
X017272Y043180
X014732Y043180
X065786Y038227
X042164Y006223
X044704Y006223
T02
X054864Y014351
X044704Y014351
X053467Y011049
X043307Y011049
X006604Y033020
X006604Y043180
X012700Y037338
X012700Y027178
X016637Y037465
X016637Y027305
X021082Y037338
X021082Y027178
T03
X048387Y006223
X040640Y042926
X012192Y043180
M30
