G04 Layer: TopSilkscreenLayer*
G04 EasyEDA v6.5.22, 2023-05-12 10:20:37*
G04 d26d94e297664bcd9bbc3ef6a8ca1e7a,10*
G04 Gerber Generator version 0.2*
G04 Scale: 100 percent, Rotated: No, Reflected: No *
G04 Dimensions in millimeters *
G04 leading zeros omitted , absolute positions ,4 integer and 5 decimal *
%FSLAX45Y45*%
%MOMM*%

%ADD10C,0.1524*%
%ADD11C,0.2032*%
%ADD12C,0.2030*%
%ADD13C,0.2540*%

%LPD*%
D10*
X6656577Y4562347D02*
G01*
X6651243Y4572762D01*
X6640829Y4583176D01*
X6630670Y4588255D01*
X6609841Y4588255D01*
X6599427Y4583176D01*
X6589013Y4572762D01*
X6583679Y4562347D01*
X6578600Y4546600D01*
X6578600Y4520692D01*
X6583679Y4505197D01*
X6589013Y4494784D01*
X6599427Y4484370D01*
X6609841Y4479289D01*
X6630670Y4479289D01*
X6640829Y4484370D01*
X6651243Y4494784D01*
X6656577Y4505197D01*
X6656577Y4520692D01*
X6630670Y4520692D02*
G01*
X6656577Y4520692D01*
X6690868Y4588255D02*
G01*
X6690868Y4479289D01*
X6690868Y4588255D02*
G01*
X6763511Y4479289D01*
X6763511Y4588255D02*
G01*
X6763511Y4479289D01*
X6797802Y4588255D02*
G01*
X6797802Y4479289D01*
X6797802Y4588255D02*
G01*
X6834124Y4588255D01*
X6849872Y4583176D01*
X6860286Y4572762D01*
X6865365Y4562347D01*
X6870700Y4546600D01*
X6870700Y4520692D01*
X6865365Y4505197D01*
X6860286Y4494784D01*
X6849872Y4484370D01*
X6834124Y4479289D01*
X6797802Y4479289D01*
X5233415Y3937000D02*
G01*
X5124450Y3937000D01*
X5233415Y3937000D02*
G01*
X5233415Y3890263D01*
X5228336Y3874770D01*
X5223002Y3869436D01*
X5212588Y3864355D01*
X5202174Y3864355D01*
X5191759Y3869436D01*
X5186679Y3874770D01*
X5181600Y3890263D01*
X5181600Y3937000D02*
G01*
X5181600Y3890263D01*
X5176265Y3874770D01*
X5171186Y3869436D01*
X5160772Y3864355D01*
X5145024Y3864355D01*
X5134609Y3869436D01*
X5129529Y3874770D01*
X5124450Y3890263D01*
X5124450Y3937000D01*
X5233415Y3793489D02*
G01*
X5124450Y3793489D01*
X5233415Y3830065D02*
G01*
X5233415Y3757168D01*
X5233415Y3722878D02*
G01*
X5124450Y3722878D01*
X5233415Y3722878D02*
G01*
X5124450Y3650234D01*
X5233415Y3650234D02*
G01*
X5124450Y3650234D01*
X5212588Y3615944D02*
G01*
X5217922Y3605529D01*
X5233415Y3590036D01*
X5124450Y3590036D01*
X5254243Y3519170D02*
G01*
X5243829Y3529584D01*
X5228336Y3539997D01*
X5207508Y3550412D01*
X5181600Y3555745D01*
X5160772Y3555745D01*
X5134609Y3550412D01*
X5114036Y3539997D01*
X5098288Y3529584D01*
X5087874Y3519170D01*
X5233415Y3484879D02*
G01*
X5124450Y3484879D01*
X5233415Y3484879D02*
G01*
X5124450Y3412236D01*
X5233415Y3412236D02*
G01*
X5124450Y3412236D01*
X5233415Y3377945D02*
G01*
X5124450Y3377945D01*
X5233415Y3377945D02*
G01*
X5233415Y3310381D01*
X5181600Y3377945D02*
G01*
X5181600Y3336289D01*
X5124450Y3377945D02*
G01*
X5124450Y3310381D01*
X5233415Y3276092D02*
G01*
X5124450Y3203447D01*
X5233415Y3203447D02*
G01*
X5124450Y3276092D01*
X5233415Y3132836D02*
G01*
X5124450Y3132836D01*
X5233415Y3169157D02*
G01*
X5233415Y3096260D01*
X5254243Y3061970D02*
G01*
X5243829Y3051810D01*
X5228336Y3041395D01*
X5207508Y3030981D01*
X5181600Y3025647D01*
X5160772Y3025647D01*
X5134609Y3030981D01*
X5114036Y3041395D01*
X5098288Y3051810D01*
X5087874Y3061970D01*
X4801615Y3949700D02*
G01*
X4692650Y3949700D01*
X4801615Y3949700D02*
G01*
X4801615Y3902963D01*
X4796536Y3887470D01*
X4791202Y3882136D01*
X4780788Y3877055D01*
X4770374Y3877055D01*
X4759959Y3882136D01*
X4754879Y3887470D01*
X4749800Y3902963D01*
X4749800Y3949700D02*
G01*
X4749800Y3902963D01*
X4744465Y3887470D01*
X4739386Y3882136D01*
X4728972Y3877055D01*
X4713224Y3877055D01*
X4702809Y3882136D01*
X4697729Y3887470D01*
X4692650Y3902963D01*
X4692650Y3949700D01*
X4801615Y3806189D02*
G01*
X4692650Y3806189D01*
X4801615Y3842765D02*
G01*
X4801615Y3769868D01*
X4801615Y3735578D02*
G01*
X4692650Y3735578D01*
X4801615Y3735578D02*
G01*
X4692650Y3662934D01*
X4801615Y3662934D02*
G01*
X4692650Y3662934D01*
X4775708Y3623310D02*
G01*
X4780788Y3623310D01*
X4791202Y3618229D01*
X4796536Y3613150D01*
X4801615Y3602736D01*
X4801615Y3581907D01*
X4796536Y3571494D01*
X4791202Y3566160D01*
X4780788Y3561079D01*
X4770374Y3561079D01*
X4759959Y3566160D01*
X4744465Y3576573D01*
X4692650Y3628644D01*
X4692650Y3556000D01*
X4822443Y3485134D02*
G01*
X4812029Y3495547D01*
X4796536Y3505962D01*
X4775708Y3516376D01*
X4749800Y3521710D01*
X4728972Y3521710D01*
X4702809Y3516376D01*
X4682236Y3505962D01*
X4666488Y3495547D01*
X4656074Y3485134D01*
X4801615Y3450844D02*
G01*
X4692650Y3450844D01*
X4801615Y3450844D02*
G01*
X4801615Y3404107D01*
X4796536Y3388613D01*
X4791202Y3383279D01*
X4780788Y3378200D01*
X4765293Y3378200D01*
X4754879Y3383279D01*
X4749800Y3388613D01*
X4744465Y3404107D01*
X4744465Y3450844D01*
X4801615Y3343910D02*
G01*
X4692650Y3343910D01*
X4801615Y3343910D02*
G01*
X4801615Y3297173D01*
X4796536Y3281679D01*
X4791202Y3276345D01*
X4780788Y3271265D01*
X4770374Y3271265D01*
X4759959Y3276345D01*
X4754879Y3281679D01*
X4749800Y3297173D01*
X4749800Y3343910D01*
X4749800Y3307587D02*
G01*
X4692650Y3271265D01*
X4801615Y3236976D02*
G01*
X4692650Y3236976D01*
X4801615Y3236976D02*
G01*
X4801615Y3169412D01*
X4749800Y3236976D02*
G01*
X4749800Y3195320D01*
X4692650Y3236976D02*
G01*
X4692650Y3169412D01*
X4801615Y3135121D02*
G01*
X4692650Y3093465D01*
X4801615Y3051810D02*
G01*
X4692650Y3093465D01*
X4822443Y3017520D02*
G01*
X4812029Y3007360D01*
X4796536Y2996945D01*
X4775708Y2986531D01*
X4749800Y2981197D01*
X4728972Y2981197D01*
X4702809Y2986531D01*
X4682236Y2996945D01*
X4666488Y3007360D01*
X4656074Y3017520D01*
X915415Y1549400D02*
G01*
X806450Y1549400D01*
X915415Y1476755D02*
G01*
X806450Y1476755D01*
X863600Y1549400D02*
G01*
X863600Y1476755D01*
X894587Y1442465D02*
G01*
X899921Y1432052D01*
X915415Y1416304D01*
X806450Y1416304D01*
X2718815Y1536700D02*
G01*
X2609850Y1536700D01*
X2718815Y1464055D02*
G01*
X2609850Y1464055D01*
X2667000Y1536700D02*
G01*
X2667000Y1464055D01*
X2692908Y1424431D02*
G01*
X2697988Y1424431D01*
X2708402Y1419352D01*
X2713736Y1414018D01*
X2718815Y1403604D01*
X2718815Y1383029D01*
X2713736Y1372615D01*
X2708402Y1367281D01*
X2697988Y1362202D01*
X2687574Y1362202D01*
X2677159Y1367281D01*
X2661665Y1377695D01*
X2609850Y1429765D01*
X2609850Y1356868D01*
X6591300Y3569715D02*
G01*
X6591300Y3460750D01*
X6663943Y3569715D02*
G01*
X6663943Y3460750D01*
X6591300Y3517900D02*
G01*
X6663943Y3517900D01*
X6708647Y3569715D02*
G01*
X6765797Y3569715D01*
X6734809Y3528060D01*
X6750304Y3528060D01*
X6760718Y3522979D01*
X6765797Y3517900D01*
X6771131Y3502152D01*
X6771131Y3491737D01*
X6765797Y3476244D01*
X6755384Y3465829D01*
X6739890Y3460750D01*
X6724395Y3460750D01*
X6708647Y3465829D01*
X6703568Y3470910D01*
X6698234Y3481323D01*
X6642100Y1548384D02*
G01*
X6642100Y1657350D01*
X6569456Y1548384D02*
G01*
X6569456Y1657350D01*
X6642100Y1600200D02*
G01*
X6569456Y1600200D01*
X6483095Y1548384D02*
G01*
X6535165Y1621028D01*
X6457188Y1621028D01*
X6483095Y1548384D02*
G01*
X6483095Y1657350D01*
X7385558Y3593084D02*
G01*
X7395972Y3598163D01*
X7406386Y3608578D01*
X7411720Y3618992D01*
X7416800Y3634739D01*
X7416800Y3660647D01*
X7411720Y3676142D01*
X7406386Y3686555D01*
X7395972Y3696970D01*
X7385558Y3702050D01*
X7364729Y3702050D01*
X7354570Y3696970D01*
X7344156Y3686555D01*
X7338822Y3676142D01*
X7333741Y3660647D01*
X7333741Y3634739D01*
X7338822Y3618992D01*
X7344156Y3608578D01*
X7354570Y3598163D01*
X7364729Y3593084D01*
X7385558Y3593084D01*
X7299452Y3593084D02*
G01*
X7299452Y3702050D01*
X7299452Y3702050D02*
G01*
X7236968Y3702050D01*
X7202677Y3593084D02*
G01*
X7202677Y3702050D01*
X7202677Y3593084D02*
G01*
X7135113Y3593084D01*
X7202677Y3644900D02*
G01*
X7161275Y3644900D01*
X7202677Y3702050D02*
G01*
X7135113Y3702050D01*
X7100824Y3593084D02*
G01*
X7100824Y3702050D01*
X7100824Y3593084D02*
G01*
X7064502Y3593084D01*
X7049008Y3598163D01*
X7038593Y3608578D01*
X7033259Y3618992D01*
X7028179Y3634739D01*
X7028179Y3660647D01*
X7033259Y3676142D01*
X7038593Y3686555D01*
X7049008Y3696970D01*
X7064502Y3702050D01*
X7100824Y3702050D01*
X6137656Y3532378D02*
G01*
X6148070Y3521963D01*
X6163563Y3516884D01*
X6184391Y3516884D01*
X6199886Y3521963D01*
X6210300Y3532378D01*
X6210300Y3542792D01*
X6205220Y3553205D01*
X6199886Y3558539D01*
X6189472Y3563620D01*
X6158229Y3574034D01*
X6148070Y3579113D01*
X6142736Y3584447D01*
X6137656Y3594862D01*
X6137656Y3610355D01*
X6148070Y3620770D01*
X6163563Y3625850D01*
X6184391Y3625850D01*
X6199886Y3620770D01*
X6210300Y3610355D01*
X6103365Y3516884D02*
G01*
X6103365Y3625850D01*
X6103365Y3516884D02*
G01*
X6035802Y3516884D01*
X6103365Y3568700D02*
G01*
X6061709Y3568700D01*
X6103365Y3625850D02*
G01*
X6035802Y3625850D01*
X6001511Y3516884D02*
G01*
X6001511Y3625850D01*
X6001511Y3516884D02*
G01*
X5954775Y3516884D01*
X5939027Y3521963D01*
X5933947Y3527297D01*
X5928613Y3537712D01*
X5928613Y3548126D01*
X5933947Y3558539D01*
X5939027Y3563620D01*
X5954775Y3568700D01*
X6001511Y3568700D01*
X5965190Y3568700D02*
G01*
X5928613Y3625850D01*
X5894324Y3516884D02*
G01*
X5894324Y3625850D01*
X5818631Y3516884D02*
G01*
X5860034Y3625850D01*
X5818631Y3516884D02*
G01*
X5776975Y3625850D01*
X5844540Y3589528D02*
G01*
X5792470Y3589528D01*
X5742686Y3516884D02*
G01*
X5742686Y3625850D01*
X5742686Y3625850D02*
G01*
X5680456Y3625850D01*
X5646165Y3516884D02*
G01*
X5646165Y3625850D01*
X5646165Y3516884D02*
G01*
X5599429Y3516884D01*
X5583681Y3521963D01*
X5578602Y3527297D01*
X5573268Y3537712D01*
X5573268Y3553205D01*
X5578602Y3563620D01*
X5583681Y3568700D01*
X5599429Y3574034D01*
X5646165Y3574034D01*
X5538977Y3516884D02*
G01*
X5538977Y3625850D01*
X5538977Y3516884D02*
G01*
X5492241Y3516884D01*
X5476747Y3521963D01*
X5471413Y3527297D01*
X5466334Y3537712D01*
X5466334Y3548126D01*
X5471413Y3558539D01*
X5476747Y3563620D01*
X5492241Y3568700D01*
X5538977Y3568700D01*
X5502656Y3568700D02*
G01*
X5466334Y3625850D01*
X5432043Y3516884D02*
G01*
X5432043Y3625850D01*
X5432043Y3516884D02*
G01*
X5390388Y3625850D01*
X5348986Y3516884D02*
G01*
X5390388Y3625850D01*
X5348986Y3516884D02*
G01*
X5348986Y3625850D01*
X4978400Y1167384D02*
G01*
X4978400Y1276350D01*
X4978400Y1167384D02*
G01*
X4931663Y1167384D01*
X4916170Y1172463D01*
X4910836Y1177797D01*
X4905756Y1188212D01*
X4905756Y1198626D01*
X4910836Y1209039D01*
X4916170Y1214120D01*
X4931663Y1219200D01*
X4978400Y1219200D01*
X4942077Y1219200D02*
G01*
X4905756Y1276350D01*
X4871465Y1188212D02*
G01*
X4861052Y1182878D01*
X4845304Y1167384D01*
X4845304Y1276350D01*
X4838700Y837184D02*
G01*
X4838700Y946150D01*
X4838700Y837184D02*
G01*
X4791963Y837184D01*
X4776470Y842263D01*
X4771136Y847597D01*
X4766056Y858012D01*
X4766056Y868426D01*
X4771136Y878839D01*
X4776470Y883920D01*
X4791963Y889000D01*
X4838700Y889000D01*
X4802377Y889000D02*
G01*
X4766056Y946150D01*
X4726431Y863092D02*
G01*
X4726431Y858012D01*
X4721352Y847597D01*
X4716018Y842263D01*
X4705604Y837184D01*
X4685029Y837184D01*
X4674615Y842263D01*
X4669281Y847597D01*
X4664202Y858012D01*
X4664202Y868426D01*
X4669281Y878839D01*
X4679695Y894334D01*
X4731765Y946150D01*
X4658868Y946150D01*
X5118100Y354584D02*
G01*
X5118100Y463550D01*
X5118100Y354584D02*
G01*
X5071363Y354584D01*
X5055870Y359663D01*
X5050536Y364997D01*
X5045456Y375412D01*
X5045456Y385826D01*
X5050536Y396239D01*
X5055870Y401320D01*
X5071363Y406400D01*
X5118100Y406400D01*
X5081777Y406400D02*
G01*
X5045456Y463550D01*
X5011165Y354584D02*
G01*
X5011165Y463550D01*
X5011165Y354584D02*
G01*
X4943602Y354584D01*
X5011165Y406400D02*
G01*
X4969509Y406400D01*
X5011165Y463550D02*
G01*
X4943602Y463550D01*
X4836413Y370078D02*
G01*
X4846827Y359663D01*
X4862575Y354584D01*
X4883150Y354584D01*
X4898897Y359663D01*
X4909311Y370078D01*
X4909311Y380492D01*
X4903977Y390905D01*
X4898897Y396239D01*
X4888484Y401320D01*
X4857241Y411734D01*
X4846827Y416813D01*
X4841747Y422147D01*
X4836413Y432562D01*
X4836413Y448055D01*
X4846827Y458470D01*
X4862575Y463550D01*
X4883150Y463550D01*
X4898897Y458470D01*
X4909311Y448055D01*
X4765802Y333755D02*
G01*
X4776215Y344170D01*
X4786629Y359663D01*
X4797043Y380492D01*
X4802124Y406400D01*
X4802124Y427228D01*
X4797043Y453389D01*
X4786629Y473963D01*
X4776215Y489712D01*
X4765802Y500126D01*
X4731511Y354584D02*
G01*
X4690109Y463550D01*
X4648454Y354584D02*
G01*
X4690109Y463550D01*
X4582922Y354584D02*
G01*
X4593336Y359663D01*
X4603750Y370078D01*
X4608829Y380492D01*
X4614163Y396239D01*
X4614163Y422147D01*
X4608829Y437642D01*
X4603750Y448055D01*
X4593336Y458470D01*
X4582922Y463550D01*
X4562093Y463550D01*
X4551679Y458470D01*
X4541520Y448055D01*
X4536186Y437642D01*
X4531106Y422147D01*
X4531106Y396239D01*
X4536186Y380492D01*
X4541520Y370078D01*
X4551679Y359663D01*
X4562093Y354584D01*
X4582922Y354584D01*
X4496815Y354584D02*
G01*
X4496815Y463550D01*
X4496815Y463550D02*
G01*
X4434331Y463550D01*
X4400041Y354584D02*
G01*
X4400041Y432562D01*
X4394961Y448055D01*
X4384547Y458470D01*
X4368800Y463550D01*
X4358640Y463550D01*
X4342891Y458470D01*
X4332477Y448055D01*
X4327397Y432562D01*
X4327397Y354584D01*
X4293108Y354584D02*
G01*
X4293108Y463550D01*
X4293108Y354584D02*
G01*
X4251452Y463550D01*
X4210050Y354584D02*
G01*
X4251452Y463550D01*
X4210050Y354584D02*
G01*
X4210050Y463550D01*
X4175759Y354584D02*
G01*
X4175759Y463550D01*
X4175759Y354584D02*
G01*
X4108195Y354584D01*
X4175759Y406400D02*
G01*
X4134104Y406400D01*
X4175759Y463550D02*
G01*
X4108195Y463550D01*
X4073906Y333755D02*
G01*
X4063491Y344170D01*
X4053077Y359663D01*
X4042663Y380492D01*
X4037329Y406400D01*
X4037329Y427228D01*
X4042663Y453389D01*
X4053077Y473963D01*
X4063491Y489712D01*
X4073906Y500126D01*
X4047743Y4557521D02*
G01*
X4037329Y4567936D01*
X4021836Y4573015D01*
X4001008Y4573015D01*
X3985513Y4567936D01*
X3975100Y4557521D01*
X3975100Y4547107D01*
X3980179Y4536694D01*
X3985513Y4531360D01*
X3995927Y4526279D01*
X4027170Y4515865D01*
X4037329Y4510786D01*
X4042663Y4505452D01*
X4047743Y4495037D01*
X4047743Y4479544D01*
X4037329Y4469129D01*
X4021836Y4464050D01*
X4001008Y4464050D01*
X3985513Y4469129D01*
X3975100Y4479544D01*
X4082034Y4573015D02*
G01*
X4108195Y4464050D01*
X4134104Y4573015D02*
G01*
X4108195Y4464050D01*
X4134104Y4573015D02*
G01*
X4160011Y4464050D01*
X4185920Y4573015D02*
G01*
X4160011Y4464050D01*
X2908300Y867155D02*
G01*
X2908300Y758189D01*
X2908300Y867155D02*
G01*
X2944622Y867155D01*
X2960370Y862076D01*
X2970529Y851662D01*
X2975863Y841247D01*
X2980943Y825500D01*
X2980943Y799592D01*
X2975863Y784097D01*
X2970529Y773684D01*
X2960370Y763270D01*
X2944622Y758189D01*
X2908300Y758189D01*
X3015234Y867155D02*
G01*
X3056890Y815339D01*
X3056890Y758189D01*
X3098545Y867155D02*
G01*
X3056890Y815339D01*
X3132836Y867155D02*
G01*
X3132836Y758189D01*
X3132836Y867155D02*
G01*
X3205479Y758189D01*
X3205479Y867155D02*
G01*
X3205479Y758189D01*
X3239770Y867155D02*
G01*
X3239770Y758189D01*
X3239770Y867155D02*
G01*
X3281425Y758189D01*
X3322827Y867155D02*
G01*
X3281425Y758189D01*
X3322827Y867155D02*
G01*
X3322827Y758189D01*
X2946400Y1387855D02*
G01*
X2946400Y1278889D01*
X2946400Y1387855D02*
G01*
X2982722Y1387855D01*
X2998470Y1382776D01*
X3008629Y1372362D01*
X3013963Y1361947D01*
X3019043Y1346200D01*
X3019043Y1320292D01*
X3013963Y1304797D01*
X3008629Y1294384D01*
X2998470Y1283970D01*
X2982722Y1278889D01*
X2946400Y1278889D01*
X3053334Y1387855D02*
G01*
X3094990Y1336039D01*
X3094990Y1278889D01*
X3136645Y1387855D02*
G01*
X3094990Y1336039D01*
X3170936Y1387855D02*
G01*
X3170936Y1278889D01*
X3170936Y1387855D02*
G01*
X3243579Y1278889D01*
X3243579Y1387855D02*
G01*
X3243579Y1278889D01*
X3277870Y1387855D02*
G01*
X3277870Y1278889D01*
X3277870Y1387855D02*
G01*
X3324606Y1387855D01*
X3340100Y1382776D01*
X3345434Y1377442D01*
X3350513Y1367028D01*
X3350513Y1351534D01*
X3345434Y1341120D01*
X3340100Y1336039D01*
X3324606Y1330705D01*
X3277870Y1330705D01*
X392684Y3810000D02*
G01*
X501650Y3810000D01*
X392684Y3810000D02*
G01*
X392684Y3856736D01*
X397763Y3872229D01*
X403097Y3877563D01*
X413512Y3882644D01*
X423926Y3882644D01*
X434339Y3877563D01*
X439420Y3872229D01*
X444500Y3856736D01*
X444500Y3810000D01*
X444500Y3846321D02*
G01*
X501650Y3882644D01*
X392684Y3927347D02*
G01*
X392684Y3984497D01*
X434339Y3953510D01*
X434339Y3969004D01*
X439420Y3979418D01*
X444500Y3984497D01*
X460247Y3989831D01*
X470662Y3989831D01*
X486155Y3984497D01*
X496570Y3974084D01*
X501650Y3958589D01*
X501650Y3943095D01*
X496570Y3927347D01*
X491489Y3922268D01*
X481076Y3916934D01*
X1537715Y3225800D02*
G01*
X1428750Y3225800D01*
X1537715Y3225800D02*
G01*
X1537715Y3179063D01*
X1532636Y3163570D01*
X1527302Y3158236D01*
X1516887Y3153155D01*
X1506473Y3153155D01*
X1496060Y3158236D01*
X1490979Y3163570D01*
X1485900Y3179063D01*
X1485900Y3225800D01*
X1485900Y3189478D02*
G01*
X1428750Y3153155D01*
X1537715Y3066795D02*
G01*
X1465071Y3118865D01*
X1465071Y3040887D01*
X1537715Y3066795D02*
G01*
X1428750Y3066795D01*
X1931415Y3238500D02*
G01*
X1822450Y3238500D01*
X1931415Y3238500D02*
G01*
X1931415Y3191763D01*
X1926336Y3176270D01*
X1921002Y3170936D01*
X1910587Y3165855D01*
X1900173Y3165855D01*
X1889760Y3170936D01*
X1884679Y3176270D01*
X1879600Y3191763D01*
X1879600Y3238500D01*
X1879600Y3202178D02*
G01*
X1822450Y3165855D01*
X1931415Y3069081D02*
G01*
X1931415Y3121152D01*
X1884679Y3126231D01*
X1889760Y3121152D01*
X1895094Y3105404D01*
X1895094Y3089910D01*
X1889760Y3074415D01*
X1879600Y3064002D01*
X1863852Y3058668D01*
X1853437Y3058668D01*
X1837944Y3064002D01*
X1827529Y3074415D01*
X1822450Y3089910D01*
X1822450Y3105404D01*
X1827529Y3121152D01*
X1832610Y3126231D01*
X1843023Y3131565D01*
X2375915Y3225800D02*
G01*
X2266950Y3225800D01*
X2375915Y3225800D02*
G01*
X2375915Y3179063D01*
X2370836Y3163570D01*
X2365502Y3158236D01*
X2355088Y3153155D01*
X2344674Y3153155D01*
X2334259Y3158236D01*
X2329179Y3163570D01*
X2324100Y3179063D01*
X2324100Y3225800D01*
X2324100Y3189478D02*
G01*
X2266950Y3153155D01*
X2360422Y3056381D02*
G01*
X2370836Y3061715D01*
X2375915Y3077210D01*
X2375915Y3087623D01*
X2370836Y3103118D01*
X2355088Y3113531D01*
X2329179Y3118865D01*
X2303272Y3118865D01*
X2282443Y3113531D01*
X2272029Y3103118D01*
X2266950Y3087623D01*
X2266950Y3082289D01*
X2272029Y3066795D01*
X2282443Y3056381D01*
X2297938Y3051302D01*
X2303272Y3051302D01*
X2318765Y3056381D01*
X2329179Y3066795D01*
X2334259Y3082289D01*
X2334259Y3087623D01*
X2329179Y3103118D01*
X2318765Y3113531D01*
X2303272Y3118865D01*
X1866900Y4611115D02*
G01*
X1866900Y4502150D01*
X1866900Y4611115D02*
G01*
X1913636Y4611115D01*
X1929129Y4606036D01*
X1934463Y4600702D01*
X1939543Y4590287D01*
X1939543Y4579873D01*
X1934463Y4569460D01*
X1929129Y4564379D01*
X1913636Y4559300D01*
X1866900Y4559300D02*
G01*
X1913636Y4559300D01*
X1929129Y4553965D01*
X1934463Y4548886D01*
X1939543Y4538471D01*
X1939543Y4522723D01*
X1934463Y4512310D01*
X1929129Y4507229D01*
X1913636Y4502150D01*
X1866900Y4502150D01*
X2015490Y4611115D02*
G01*
X1973834Y4502150D01*
X2015490Y4611115D02*
G01*
X2057145Y4502150D01*
X1989581Y4538471D02*
G01*
X2041397Y4538471D01*
X2127758Y4611115D02*
G01*
X2127758Y4502150D01*
X2091436Y4611115D02*
G01*
X2164079Y4611115D01*
X2234691Y4611115D02*
G01*
X2234691Y4502150D01*
X2198370Y4611115D02*
G01*
X2271013Y4611115D01*
X2305304Y4611115D02*
G01*
X2305304Y4502150D01*
X2305304Y4611115D02*
G01*
X2372868Y4611115D01*
X2305304Y4559300D02*
G01*
X2346959Y4559300D01*
X2305304Y4502150D02*
G01*
X2372868Y4502150D01*
X2407158Y4611115D02*
G01*
X2407158Y4502150D01*
X2407158Y4611115D02*
G01*
X2453893Y4611115D01*
X2469641Y4606036D01*
X2474722Y4600702D01*
X2480056Y4590287D01*
X2480056Y4579873D01*
X2474722Y4569460D01*
X2469641Y4564379D01*
X2453893Y4559300D01*
X2407158Y4559300D01*
X2443479Y4559300D02*
G01*
X2480056Y4502150D01*
X2514345Y4611115D02*
G01*
X2555747Y4559300D01*
X2555747Y4502150D01*
X2597404Y4611115D02*
G01*
X2555747Y4559300D01*
X1342644Y4608321D02*
G01*
X1332229Y4618736D01*
X1316736Y4623815D01*
X1295907Y4623815D01*
X1280413Y4618736D01*
X1270000Y4608321D01*
X1270000Y4597907D01*
X1275079Y4587494D01*
X1280413Y4582160D01*
X1290828Y4577079D01*
X1322070Y4566665D01*
X1332229Y4561586D01*
X1337563Y4556252D01*
X1342644Y4545837D01*
X1342644Y4530344D01*
X1332229Y4519929D01*
X1316736Y4514850D01*
X1295907Y4514850D01*
X1280413Y4519929D01*
X1270000Y4530344D01*
X1413510Y4623815D02*
G01*
X1413510Y4514850D01*
X1376934Y4623815D02*
G01*
X1449831Y4623815D01*
X1525523Y4623815D02*
G01*
X1484121Y4514850D01*
X1525523Y4623815D02*
G01*
X1567179Y4514850D01*
X1499615Y4551171D02*
G01*
X1551686Y4551171D01*
X1601470Y4623815D02*
G01*
X1601470Y4514850D01*
X1601470Y4623815D02*
G01*
X1648205Y4623815D01*
X1663700Y4618736D01*
X1669034Y4613402D01*
X1674113Y4602987D01*
X1674113Y4592573D01*
X1669034Y4582160D01*
X1663700Y4577079D01*
X1648205Y4572000D01*
X1601470Y4572000D02*
G01*
X1648205Y4572000D01*
X1663700Y4566665D01*
X1669034Y4561586D01*
X1674113Y4551171D01*
X1674113Y4535423D01*
X1669034Y4525010D01*
X1663700Y4519929D01*
X1648205Y4514850D01*
X1601470Y4514850D01*
X6656577Y4054347D02*
G01*
X6651243Y4064762D01*
X6640829Y4075176D01*
X6630670Y4080255D01*
X6609841Y4080255D01*
X6599427Y4075176D01*
X6589013Y4064762D01*
X6583679Y4054347D01*
X6578600Y4038600D01*
X6578600Y4012692D01*
X6583679Y3997197D01*
X6589013Y3986784D01*
X6599427Y3976370D01*
X6609841Y3971289D01*
X6630670Y3971289D01*
X6640829Y3976370D01*
X6651243Y3986784D01*
X6656577Y3997197D01*
X6656577Y4012692D01*
X6630670Y4012692D02*
G01*
X6656577Y4012692D01*
X6690868Y4080255D02*
G01*
X6690868Y3971289D01*
X6690868Y4080255D02*
G01*
X6763511Y3971289D01*
X6763511Y4080255D02*
G01*
X6763511Y3971289D01*
X6797802Y4080255D02*
G01*
X6797802Y3971289D01*
X6797802Y4080255D02*
G01*
X6834124Y4080255D01*
X6849872Y4075176D01*
X6860286Y4064762D01*
X6865365Y4054347D01*
X6870700Y4038600D01*
X6870700Y4012692D01*
X6865365Y3997197D01*
X6860286Y3986784D01*
X6849872Y3976370D01*
X6834124Y3971289D01*
X6797802Y3971289D01*
X6904990Y4059428D02*
G01*
X6915150Y4064762D01*
X6930897Y4080255D01*
X6930897Y3971289D01*
X4318000Y890015D02*
G01*
X4318000Y781050D01*
X4318000Y890015D02*
G01*
X4364736Y890015D01*
X4380229Y884936D01*
X4385563Y879602D01*
X4390643Y869187D01*
X4390643Y858773D01*
X4385563Y848360D01*
X4380229Y843279D01*
X4364736Y838200D01*
X4318000Y838200D01*
X4354322Y838200D02*
G01*
X4390643Y781050D01*
X4424934Y890015D02*
G01*
X4424934Y781050D01*
X4424934Y890015D02*
G01*
X4492497Y890015D01*
X4424934Y838200D02*
G01*
X4466590Y838200D01*
X4424934Y781050D02*
G01*
X4492497Y781050D01*
X4599686Y874521D02*
G01*
X4589272Y884936D01*
X4573524Y890015D01*
X4552950Y890015D01*
X4537202Y884936D01*
X4526788Y874521D01*
X4526788Y864107D01*
X4532122Y853694D01*
X4537202Y848360D01*
X4547615Y843279D01*
X4578858Y832865D01*
X4589272Y827786D01*
X4594352Y822452D01*
X4599686Y812037D01*
X4599686Y796544D01*
X4589272Y786129D01*
X4573524Y781050D01*
X4552950Y781050D01*
X4537202Y786129D01*
X4526788Y796544D01*
X4633975Y890015D02*
G01*
X4633975Y781050D01*
X4633975Y890015D02*
G01*
X4701540Y890015D01*
X4633975Y838200D02*
G01*
X4675377Y838200D01*
X4633975Y781050D02*
G01*
X4701540Y781050D01*
X4772152Y890015D02*
G01*
X4772152Y781050D01*
X4735829Y890015D02*
G01*
X4808474Y890015D01*
D11*
X6705600Y4203700D02*
G01*
X6451600Y4203700D01*
X6451600Y4457700D01*
X6705600Y4457700D01*
X6705600Y4267200D01*
D12*
X6705600Y4203700D02*
G01*
X6705600Y4267200D01*
D11*
X5092700Y3657600D02*
G01*
X4841240Y3657600D01*
X4841240Y4165600D01*
X5092700Y4165600D01*
X5092700Y3657600D01*
X4660900Y3670300D02*
G01*
X4409440Y3670300D01*
X4409440Y4178300D01*
X4660900Y4178300D01*
X4660900Y3670300D01*
X774700Y508000D02*
G01*
X520700Y508000D01*
X520700Y2540000D01*
X774700Y2540000D01*
X774700Y2349500D01*
D12*
X774700Y508000D02*
G01*
X774700Y2349500D01*
D11*
X2578100Y495300D02*
G01*
X2324100Y495300D01*
X2324100Y2527300D01*
X2578100Y2527300D01*
X2578100Y2336800D01*
D12*
X2578100Y495300D02*
G01*
X2578100Y2336800D01*
D11*
X9156700Y3422650D02*
G01*
X9156700Y3435350D01*
X4076700Y3435350D01*
X4076700Y3168650D01*
X9156700Y3168650D01*
X9156700Y3422650D01*
X4076700Y1695450D02*
G01*
X4076700Y1682750D01*
X9156700Y1682750D01*
X9156700Y1949450D01*
X4076700Y1949450D01*
X4076700Y1695450D01*
X6883400Y3733800D02*
G01*
X6883400Y3987800D01*
X7899400Y3987800D01*
X7899400Y3733800D01*
X7708900Y3733800D01*
D12*
X6883400Y3733800D02*
G01*
X7708900Y3733800D01*
D11*
X5283200Y3670300D02*
G01*
X5283200Y3924300D01*
X6299200Y3924300D01*
X6299200Y3670300D01*
X6108700Y3670300D01*
D12*
X5283200Y3670300D02*
G01*
X6108700Y3670300D01*
D13*
X5293359Y1554479D02*
G01*
X5293359Y1315720D01*
X5293359Y1315720D02*
G01*
X4663440Y1315720D01*
X4663440Y1315720D02*
G01*
X4663440Y1554479D01*
X4663440Y1554479D02*
G01*
X5293359Y1554479D01*
X5153659Y1224279D02*
G01*
X5153659Y985520D01*
X5153659Y985520D02*
G01*
X4523740Y985520D01*
X4523740Y985520D02*
G01*
X4523740Y1224279D01*
X4523740Y1224279D02*
G01*
X5153659Y1224279D01*
D11*
X4965700Y495300D02*
G01*
X4711700Y495300D01*
X4711700Y746760D01*
X5473700Y746760D01*
X5473700Y495300D01*
X4965700Y495300D01*
X3937000Y4165600D02*
G01*
X3937000Y4419600D01*
X4188459Y4419600D01*
X4188459Y3657600D01*
X3937000Y3657600D01*
X3937000Y4165600D01*
X3035300Y482600D02*
G01*
X2781300Y482600D01*
X2781300Y736600D01*
X3035300Y736600D01*
X3035300Y546100D01*
D12*
X3035300Y482600D02*
G01*
X3035300Y546100D01*
D11*
X3073400Y1003300D02*
G01*
X2819400Y1003300D01*
X2819400Y1257300D01*
X3073400Y1257300D01*
X3073400Y1066800D01*
D12*
X3073400Y1003300D02*
G01*
X3073400Y1066800D01*
D13*
X779779Y3495039D02*
G01*
X541020Y3495039D01*
X541020Y3495039D02*
G01*
X541020Y4124960D01*
X541020Y4124960D02*
G01*
X779779Y4124960D01*
X779779Y4124960D02*
G01*
X779779Y3495039D01*
X1150620Y3540760D02*
G01*
X1389379Y3540760D01*
X1389379Y3540760D02*
G01*
X1389379Y2910839D01*
X1389379Y2910839D02*
G01*
X1150620Y2910839D01*
X1150620Y2910839D02*
G01*
X1150620Y3540760D01*
X1544320Y3553460D02*
G01*
X1783079Y3553460D01*
X1783079Y3553460D02*
G01*
X1783079Y2923539D01*
X1783079Y2923539D02*
G01*
X1544320Y2923539D01*
X1544320Y2923539D02*
G01*
X1544320Y3553460D01*
X1988820Y3540760D02*
G01*
X2227579Y3540760D01*
X2227579Y3540760D02*
G01*
X2227579Y2910839D01*
X2227579Y2910839D02*
G01*
X1988820Y2910839D01*
X1988820Y2910839D02*
G01*
X1988820Y3540760D01*
D11*
X2298700Y4178300D02*
G01*
X2044700Y4178300D01*
X2044700Y4432300D01*
X2298700Y4432300D01*
X2298700Y4241800D01*
D12*
X2298700Y4178300D02*
G01*
X2298700Y4241800D01*
D11*
X1346200Y4191000D02*
G01*
X1092200Y4191000D01*
X1092200Y4442460D01*
X1854200Y4442460D01*
X1854200Y4191000D01*
X1346200Y4191000D01*
X6705600Y3695700D02*
G01*
X6451600Y3695700D01*
X6451600Y3949700D01*
X6705600Y3949700D01*
X6705600Y3759200D01*
D12*
X6705600Y3695700D02*
G01*
X6705600Y3759200D01*
D11*
X4597400Y749300D02*
G01*
X4597400Y497839D01*
X4089400Y497839D01*
X4089400Y749300D01*
X4597400Y749300D01*
M02*
