G04 Layer: TopLayer*
G04 EasyEDA v6.5.22, 2023-05-12 10:20:37*
G04 d26d94e297664bcd9bbc3ef6a8ca1e7a,10*
G04 Gerber Generator version 0.2*
G04 Scale: 100 percent, Rotated: No, Reflected: No *
G04 Dimensions in millimeters *
G04 leading zeros omitted , absolute positions ,4 integer and 5 decimal *
%FSLAX45Y45*%
%MOMM*%

%ADD10C,0.6000*%
%ADD11R,1.5748X1.5748*%
%ADD12C,1.5748*%
%ADD13C,1.8796*%

%LPD*%
D10*
X4216400Y622300D02*
G01*
X4445000Y393700D01*
X4737100Y393700D01*
X4737100Y520700D01*
X4838700Y622300D01*
X4216400Y622300D02*
G01*
X4737100Y1143000D01*
X4737100Y1625600D01*
X4394200Y1625600D01*
X4203700Y1816100D01*
X4838700Y622300D02*
G01*
X5016500Y444500D01*
X8293100Y444500D01*
X8293100Y469900D01*
X9398000Y1574800D01*
X9398000Y3619500D01*
X8686800Y4330700D01*
X6578600Y4330700D01*
X7010400Y3860800D02*
G01*
X6972300Y3822700D01*
X6578600Y3822700D01*
X6172200Y3797300D02*
G01*
X6197600Y3822700D01*
X6578600Y3822700D01*
X5410200Y3797300D02*
G01*
X5689600Y4076700D01*
X7073900Y4076700D01*
X7073900Y4051300D01*
X7264400Y3860800D01*
X7264400Y3860800D02*
G01*
X7264400Y3873500D01*
X7454900Y4064000D01*
X8585200Y4064000D01*
X8864600Y3784600D01*
X8864600Y3467100D01*
X9029700Y3302000D01*
X4064000Y4038600D02*
G01*
X4521200Y4038600D01*
X4533900Y4051300D01*
X5410200Y3797300D02*
G01*
X5168900Y4038600D01*
X4965700Y4038600D01*
X4064000Y3784600D02*
G01*
X4178300Y3784600D01*
X4406900Y3556000D01*
X4406900Y3352800D01*
X4457700Y3302000D01*
X4533900Y3797300D02*
G01*
X4533900Y3708400D01*
X4699000Y3543300D01*
X4699000Y3314700D01*
X4711700Y3302000D01*
X4965700Y3784600D02*
G01*
X4965700Y3302000D01*
X5664200Y3797300D02*
G01*
X5664200Y3492500D01*
X5473700Y3302000D01*
X5918200Y3797300D02*
G01*
X5918200Y3492500D01*
X5727700Y3302000D01*
X7518400Y3860800D02*
G01*
X7518400Y3314700D01*
X7505700Y3302000D01*
X7772400Y3860800D02*
G01*
X7772400Y3314700D01*
X7759700Y3302000D01*
X1270000Y3733800D02*
G01*
X1270000Y4267200D01*
X1219200Y4318000D01*
X2451100Y2400300D02*
G01*
X2451100Y3835400D01*
X2298700Y3987800D01*
X1612900Y3987800D01*
X1485900Y4114800D01*
X1485900Y4305300D01*
X1473200Y4318000D01*
X2451100Y876300D02*
G01*
X2108200Y1219200D01*
X2108200Y2717800D01*
X1663700Y3746500D02*
G01*
X2095500Y3746500D01*
X2108200Y3733800D01*
X1270000Y2717800D02*
G01*
X1651000Y2717800D01*
X1663700Y2730500D01*
X660400Y3302000D02*
G01*
X838200Y3302000D01*
X1270000Y3733800D01*
X660400Y4318000D02*
G01*
X800100Y4318000D01*
X1054100Y4572000D01*
X1219200Y4572000D01*
X1473200Y4318000D01*
X2171700Y4305300D02*
G01*
X2159000Y4318000D01*
X1727200Y4318000D01*
X2451100Y2400300D02*
G01*
X4724400Y2400300D01*
X5308600Y2984500D01*
X8204200Y2984500D01*
X8521700Y3302000D01*
X4216400Y622300D02*
G01*
X3276600Y622300D01*
X3035300Y863600D01*
X2463800Y863600D01*
X2451100Y876300D01*
X4330700Y1104900D02*
G01*
X4051300Y1104900D01*
X3263900Y1892300D01*
X2451100Y1892300D01*
X4470400Y1435100D02*
G01*
X4025900Y1435100D01*
X3314700Y2146300D01*
X2451100Y2146300D01*
X5486400Y1435100D02*
G01*
X5486400Y1803400D01*
X5473700Y1816100D01*
X5346700Y1104900D02*
G01*
X5321300Y1104900D01*
X5207000Y1219200D01*
X5207000Y1803400D01*
X5219700Y1816100D01*
X4470400Y622300D02*
G01*
X4965700Y1117600D01*
X4965700Y1816100D01*
X5346700Y622300D02*
G01*
X8229600Y622300D01*
X9271000Y1663700D01*
X9271000Y3060700D01*
X9029700Y3302000D01*
X5092700Y622300D02*
G01*
X5092700Y736600D01*
X5207000Y850900D01*
X7048500Y850900D01*
X8013700Y1816100D01*
X2908300Y609600D02*
G01*
X2463800Y609600D01*
X2451100Y622300D01*
X2946400Y1130300D02*
G01*
X2451100Y1130300D01*
X4965700Y4038600D02*
G01*
X4546600Y4038600D01*
X4533900Y4051300D01*
D11*
G01*
X6578600Y4330700D03*
G01*
X4965700Y4038600D03*
D12*
G01*
X4965700Y3784600D03*
D11*
G01*
X4533900Y4051300D03*
D12*
G01*
X4533900Y3797300D03*
D11*
G01*
X647700Y2413000D03*
D12*
G01*
X647700Y2159000D03*
G01*
X647700Y1905000D03*
G01*
X647700Y1651000D03*
G01*
X647700Y1397000D03*
G01*
X647700Y1143000D03*
G01*
X647700Y889000D03*
G01*
X647700Y635000D03*
D11*
G01*
X2451100Y2400300D03*
D12*
G01*
X2451100Y2146300D03*
G01*
X2451100Y1892300D03*
G01*
X2451100Y1638300D03*
G01*
X2451100Y1384300D03*
G01*
X2451100Y1130300D03*
G01*
X2451100Y876300D03*
G01*
X2451100Y622300D03*
G01*
X9029700Y3302000D03*
G01*
X8775700Y3302000D03*
G01*
X8521700Y3302000D03*
G01*
X8267700Y3302000D03*
G01*
X8013700Y3302000D03*
G01*
X7759700Y3302000D03*
G01*
X7505700Y3302000D03*
G01*
X7251700Y3302000D03*
G01*
X6997700Y3302000D03*
G01*
X6743700Y3302000D03*
G01*
X6489700Y3302000D03*
G01*
X6235700Y3302000D03*
G01*
X5981700Y3302000D03*
G01*
X5727700Y3302000D03*
G01*
X5473700Y3302000D03*
G01*
X5219700Y3302000D03*
G01*
X4965700Y3302000D03*
G01*
X4711700Y3302000D03*
G01*
X4457700Y3302000D03*
D11*
G01*
X4203700Y3302000D03*
D12*
G01*
X4203700Y1816100D03*
G01*
X4457700Y1816100D03*
G01*
X4711700Y1816100D03*
G01*
X4965700Y1816100D03*
G01*
X5219700Y1816100D03*
G01*
X5473700Y1816100D03*
G01*
X5727700Y1816100D03*
G01*
X5981700Y1816100D03*
G01*
X6235700Y1816100D03*
G01*
X6489700Y1816100D03*
G01*
X6743700Y1816100D03*
G01*
X6997700Y1816100D03*
G01*
X7251700Y1816100D03*
G01*
X7505700Y1816100D03*
G01*
X7759700Y1816100D03*
G01*
X8013700Y1816100D03*
G01*
X8267700Y1816100D03*
G01*
X8521700Y1816100D03*
G01*
X8775700Y1816100D03*
D11*
G01*
X9029700Y1816100D03*
G01*
X7772400Y3860800D03*
D12*
G01*
X7518400Y3860800D03*
G01*
X7264400Y3860800D03*
G01*
X7010400Y3860800D03*
D11*
G01*
X6172200Y3797300D03*
D12*
G01*
X5918200Y3797300D03*
G01*
X5664200Y3797300D03*
G01*
X5410200Y3797300D03*
D13*
G01*
X5486400Y1435100D03*
G01*
X4470400Y1435100D03*
G01*
X5346700Y1104900D03*
G01*
X4330700Y1104900D03*
D11*
G01*
X5346700Y622300D03*
D12*
G01*
X5092700Y622300D03*
G01*
X4838700Y622300D03*
D11*
G01*
X4064000Y3784600D03*
D12*
G01*
X4064000Y4038600D03*
G01*
X4064000Y4292600D03*
D11*
G01*
X2908300Y609600D03*
G01*
X2946400Y1130300D03*
D13*
G01*
X660400Y3302000D03*
G01*
X660400Y4318000D03*
G01*
X1270000Y3733800D03*
G01*
X1270000Y2717800D03*
G01*
X1663700Y3746500D03*
G01*
X1663700Y2730500D03*
G01*
X2108200Y3733800D03*
G01*
X2108200Y2717800D03*
D11*
G01*
X2171700Y4305300D03*
G01*
X1727200Y4318000D03*
D12*
G01*
X1473200Y4318000D03*
G01*
X1219200Y4318000D03*
D11*
G01*
X6578600Y3822700D03*
G01*
X4216400Y622300D03*
D12*
G01*
X4470400Y622300D03*
M02*
